<?xml version="1.0" standalone="no"?><!DOCTYPE svg PUBLIC "-//W3C//DTD SVG 1.1//EN" "http://www.w3.org/Graphics/SVG/1.1/DTD/svg11.dtd"><svg t="1534327268897" class="icon" style="" viewBox="0 0 1025 1024" version="1.1" xmlns="http://www.w3.org/2000/svg" p-id="709" xmlns:xlink="http://www.w3.org/1999/xlink" width="200.1953125" height="200"><defs><style type="text/css"></style></defs><path d="M513 512m-512 0a512 512 0 1 0 1024 0 512 512 0 1 0-1024 0Z" fill="#FFEED5" p-id="710"></path><path d="M513 512m-423.86 0a423.86 423.86 0 1 0 847.72 0 423.86 423.86 0 1 0-847.72 0Z" fill="#FFFFFF" p-id="711"></path><path d="M738.35 509.69h-200V225.24A44.46 44.46 0 0 0 494 180.91h-1.29a44.46 44.46 0 0 0-44.33 44.33v326.64c-0.06 0.92-0.1 1.85-0.1 2.79a45 45 0 0 0 44.43 45h245.64a45 45 0 0 0 45-45 45 45 0 0 0-45-44.98z" fill="#FFB74D" p-id="712"></path></svg>