<?xml version="1.0" standalone="no"?><!DOCTYPE svg PUBLIC "-//W3C//DTD SVG 1.1//EN" "http://www.w3.org/Graphics/SVG/1.1/DTD/svg11.dtd"><svg t="1533813179000" class="icon" style="" viewBox="0 0 1024 1024" version="1.1" xmlns="http://www.w3.org/2000/svg" p-id="3195" xmlns:xlink="http://www.w3.org/1999/xlink" width="200" height="200"><defs><style type="text/css"></style></defs><path d="M981.50464 421.76c8.256 11.968 15.424 23.232 21.312 33.408 18.752 32.32 21.184 47.36 21.184 56.832v214.4c0 37.248-30.016 67.52-66.88 67.52h-37.056A128.768 128.768 0 0 1 795.26464 896c-60.16 0-112.512-43.392-124.864-102.08h-16.768a65.92 65.92 0 0 1-40.448-13.76c-11.648 8.96-25.728 13.76-40.512 13.76h-178.56A128.704 128.704 0 0 1 269.12064 896c-60.16 0-112.448-43.392-124.8-102.08h-77.44A67.264 67.264 0 0 1 0.00064 726.4V195.52C0.00064 158.272 30.01664 128 66.88064 128H572.80064c36.864 0 66.88 30.272 66.88 67.52v76.928c4.608-1.024 9.344-1.472 14.08-1.472H825.60064c11.136 0 26.88 4.16 59.264 34.944 13.952 13.248 29.952 30.528 46.208 49.92l0.192 0.192 12.288 14.528h-0.32l1.536 1.92c13.12 16.384 25.792 33.408 36.736 49.28z m-712.32 420.864c41.28 0 74.752-33.856 74.752-75.392 0-41.6-33.472-75.456-74.688-75.456s-74.688 33.856-74.688 75.456 33.472 75.392 74.688 75.392zM586.75264 338.56V195.52a14.08 14.08 0 0 0-14.016-14.144H66.88064a14.08 14.08 0 0 0-14.016 14.144v530.88a14.08 14.08 0 0 0 14.08 14.208h77.44a127.616 127.616 0 0 1 121.088-102.08H273.15264c59.264 1.856 108.864 44.16 120.96 102.016h178.56c7.744 0 14.08-6.4 14.08-14.144V338.496z m208.576 504.128c41.152 0 74.688-33.856 74.688-75.392 0-41.6-33.536-75.456-74.688-75.456-41.216 0-74.752 33.856-74.752 75.456s33.536 75.392 74.752 75.392z m176-116.224V569.344h-196.096a67.264 67.264 0 0 1-66.944-67.52V420.16c0-37.248 30.08-67.584 66.944-67.584h81.536c-1.408-1.28-2.688-2.688-4.032-3.968-18.048-17.728-26.752-22.912-29.44-24.32h-169.536a14.08 14.08 0 0 0-14.016 14.208v387.712a14.08 14.08 0 0 0 14.08 14.144h16.704c11.52-54.784 58.24-96.832 114.048-101.632H785.85664v0.192-0.256h0.128v0.192l0.192-0.192v0.128-0.128l0.192 0.128v-0.128h0.192v0.064l0.896-0.128h4.288v0.064l0.192-0.064v0.128-0.128l0.128 0.128 0.192-0.128v0.128l0.128-0.128v0.064H799.04064v-0.064h0.32l0.128 0.064v-0.128 0.128H801.28064l0.768 0.064h1.088c0.32 0.064 0.64 0.064 0.896 0.192h0.384l0.192 0.064h0.128l0.192 0.064v-0.256c56.32 4.288 103.552 46.528 115.2 101.76h36.992c7.744 0 14.08-6.4 14.08-14.144h0.064z m-0.128-210.432v-3.648c-0.192-1.216-1.984-10.56-17.216-35.648l-3.52-5.76 7.296-4.736-7.488 4.48 3.392-2.304-3.584 1.92a658.176 658.176 0 0 0-28.032-40.512c-6.016-8.064-12.16-16-18.432-23.808H775.04064a14.08 14.08 0 0 0-14.016 14.144V501.76a14.08 14.08 0 0 0 14.08 14.208h196.096z" p-id="3196"></path></svg>