<svg id="图层_1" data-name="图层 1" xmlns="http://www.w3.org/2000/svg" viewBox="0 0 1009 1009"><defs><style>.cls-1{fill:#e5f2ff;}.cls-2{fill:#4798fb;}</style></defs><title>icon_top_home</title><circle class="cls-1" cx="504.5" cy="504.5" r="504.5"/><path class="cls-2" d="M750.68,482.35,553.61,300.59a39,39,0,0,0-53,0L303.52,482.43a40.13,40.13,0,0,0-10.25,43.86A39.27,39.27,0,0,0,330,551.69h39.42V693.83c0,22.1,13.81,37.84,35.59,37.84H667.67c21.78,0,36.8-15.74,36.8-37.84V551.69h19.71a39.28,39.28,0,0,0,36.75-25.4A40.3,40.3,0,0,0,750.68,482.35ZM507.39,691.67v-80h59.12v80Zm157.66-180v180H605.93v-100a19.86,19.86,0,0,0-19.71-20H487.68a19.86,19.86,0,0,0-19.7,20v100H408.85v-180H330L527.1,329.89l197.08,181.8Z" transform="translate(-6.83 -6.45)"/></svg>