<?xml version="1.0" standalone="no"?><!DOCTYPE svg PUBLIC "-//W3C//DTD SVG 1.1//EN" "http://www.w3.org/Graphics/SVG/1.1/DTD/svg11.dtd"><svg t="1534327284699" class="icon" style="" viewBox="0 0 1024 1024" version="1.1" xmlns="http://www.w3.org/2000/svg" p-id="946" xmlns:xlink="http://www.w3.org/1999/xlink" width="200" height="200"><defs><style type="text/css"></style></defs><path d="M511.560412 511.52045m-511.520449 0a511.52045 511.52045 0 1 0 1023.040899 0 511.52045 511.52045 0 1 0-1023.040899 0Z" fill="#FED6E4" p-id="947"></path><path d="M512.519513 512.47955m-423.463003 0a423.463003 423.463003 0 1 0 846.926006 0 423.463003 423.463003 0 1 0-846.926006 0Z" fill="#FFFFFF" p-id="948"></path><path d="M564.17109 669.911958l158.611302-158.611302L564.17109 352.689354v79.305651H457.421168V590.606307l106.749922 0.729316v78.576335zM299.549173 591.425539h52.630658l0.729317-159.350609h-53.359975v159.350609zM378.125507 432.07493h53.359975v159.340618h-53.359975z" fill="#FD5E94" p-id="949"></path></svg>