<?xml version="1.0" standalone="no"?><!DOCTYPE svg PUBLIC "-//W3C//DTD SVG 1.1//EN" "http://www.w3.org/Graphics/SVG/1.1/DTD/svg11.dtd"><svg t="1533813204723" class="icon" style="" viewBox="0 0 1024 1024" version="1.1" xmlns="http://www.w3.org/2000/svg" p-id="3745" xmlns:xlink="http://www.w3.org/1999/xlink" width="200" height="200"><defs><style type="text/css"></style></defs><path d="M511.68 0C229.504 0 0 229.568 0 511.68c0 282.176 229.504 511.744 511.68 511.744 282.112 0 511.68-229.568 511.68-511.744C1023.36 229.568 793.792 0 511.68 0z m0 952.32A441.152 441.152 0 0 1 71.04 511.68 441.152 441.152 0 0 1 511.68 71.04a441.152 441.152 0 0 1 440.64 440.64 441.152 441.152 0 0 1-440.64 440.64z m-52.48-729.28a39.36 39.36 0 0 1 78.72 0v262.4h183.68a39.36 39.36 0 0 1 0 78.72H510.016a50.816 50.816 0 0 1-50.816-50.816V223.04z" p-id="3746"></path></svg>