<?xml version="1.0" standalone="no"?><!DOCTYPE svg PUBLIC "-//W3C//DTD SVG 1.1//EN" "http://www.w3.org/Graphics/SVG/1.1/DTD/svg11.dtd"><svg t="1533813199705" class="icon" style="" viewBox="0 0 1024 1024" version="1.1" xmlns="http://www.w3.org/2000/svg" p-id="3635" xmlns:xlink="http://www.w3.org/1999/xlink" width="200" height="200"><defs><style type="text/css"></style></defs><path d="M955.456 126.72v125.376h-832v-125.44h832z m0-62.72h-832C90.624 64 64 92.16 64 126.72v125.376c0 34.56 26.624 62.72 59.456 62.72h832c32.768 0 59.392-28.16 59.392-62.72v-125.44c0-34.56-26.624-62.656-59.392-62.656zM836.48 189.44c0 17.28 13.312 31.296 29.76 31.296 16.384 0 29.696-14.08 29.696-31.36s-13.312-31.36-29.696-31.36a30.592 30.592 0 0 0-29.76 31.36z m-118.848 0c0 17.28 13.312 31.296 29.76 31.296 16.384 0 29.696-14.08 29.696-31.36s-13.312-31.36-29.696-31.36a30.592 30.592 0 0 0-29.76 31.36z m237.76 250.752v125.376h-832v-125.44h832z m0-62.72h-832c-32.832 0-59.456 28.096-59.456 62.72v125.376c0 34.56 26.624 62.72 59.456 62.72h832c32.768 0 59.392-28.16 59.392-62.72v-125.44c0-34.56-26.624-62.656-59.392-62.656z m-118.912 125.44c0 17.28 13.312 31.296 29.76 31.296 16.384 0 29.696-14.08 29.696-31.36s-13.312-31.36-29.696-31.36a30.592 30.592 0 0 0-29.76 31.36zM598.848 189.312c0 17.28 13.312 31.36 29.696 31.36 16.448 0 29.76-14.08 29.76-31.36s-13.312-31.36-29.76-31.36a30.592 30.592 0 0 0-29.696 31.36z m0 626.944c0 17.28 13.312 31.36 29.696 31.36 16.448 0 29.76-14.08 29.76-31.36s-13.312-31.36-29.76-31.36a30.592 30.592 0 0 0-29.696 31.36z m118.848-313.472c0 17.28 13.312 31.36 29.76 31.36 16.384 0 29.696-14.08 29.696-31.36s-13.312-31.36-29.696-31.36a30.592 30.592 0 0 0-29.76 31.36z m237.76 250.816v125.376h-832v-125.44h832z m0-62.72h-832c-32.832 0-59.456 28.096-59.456 62.72v125.376c0 34.56 26.624 62.72 59.456 62.72h832c32.768 0 59.392-28.16 59.392-62.72v-125.44c0-34.56-26.624-62.72-59.392-62.72z m-118.912 125.44c0 17.28 13.312 31.296 29.76 31.296 16.384 0 29.696-14.08 29.696-31.36s-13.312-31.36-29.696-31.36a30.592 30.592 0 0 0-29.76 31.36z m-118.848 0c0 17.28 13.312 31.296 29.76 31.296 16.384 0 29.696-14.08 29.696-31.36s-13.312-31.36-29.696-31.36a30.592 30.592 0 0 0-29.76 31.36z" p-id="3636"></path></svg>