<?xml version="1.0" standalone="no"?><!DOCTYPE svg PUBLIC "-//W3C//DTD SVG 1.1//EN" "http://www.w3.org/Graphics/SVG/1.1/DTD/svg11.dtd"><svg t="1534417385842" class="icon" style="" viewBox="0 0 1194 1024" version="1.1" xmlns="http://www.w3.org/2000/svg" p-id="911" xmlns:xlink="http://www.w3.org/1999/xlink" width="233.203125" height="200"><defs><style type="text/css"></style></defs><path d="M1179.733333 723.029333h-208.213333V514.389333a13.056 13.056 0 0 0-12.970667-13.056h-52.053333a13.056 13.056 0 0 0-13.056 13.056v208.64H685.226667a13.056 13.056 0 0 0-13.056 13.056v52.138667c0 7.168 5.888 13.056 13.056 13.056h208.213333v208.64c0 7.253333 5.888 13.056 12.970667 13.056h52.053333a13.056 13.056 0 0 0 13.056-13.056V801.28h208.213333a13.056 13.056 0 0 0 13.056-13.056v-52.138667a13.056 13.056 0 0 0-13.056-13.056zM367.018667 79.445333c75.434667 0 147.029333 29.354667 201.728 82.090667l27.306666 26.794667 27.306667-26.794667A289.194667 289.194667 0 0 1 825.173333 79.445333a290.56 290.56 0 0 1 289.621334 290.133334c0 23.466667-4.608 47.616-13.056 73.045333 0 0-3.925333 11.776-3.925334 18.261333a39.253333 39.253333 0 0 0 39.082667 39.168c18.858667 0 32.512-18.944 38.4-32 5.12-11.690667 18.176-65.877333 18.176-98.474666A368.042667 368.042667 0 0 0 825.770667 1.194667a364.373333 364.373333 0 0 0-229.034667 80.213333 364.373333 364.373333 0 0 0-229.12-80.213333A368.042667 368.042667 0 0 0 0 369.493333c0 259.584 423.594667 560.810667 552.448 646.229334a9.386667 9.386667 0 0 0 1.962667 1.365333s13.056 5.802667 20.138666 5.802667a39.253333 39.253333 0 0 0 39.082667-39.082667 37.802667 37.802667 0 0 0-18.261333-32.597333C433.493333 846.933333 76.8 575.658667 76.8 369.493333 77.482667 209.92 207.616 79.445333 366.933333 79.445333z" fill="#52C41A" p-id="912"></path></svg>