<svg xmlns="http://www.w3.org/2000/svg" width="70" height="76" viewBox="0 0 70 76">
  <g fill="none" opacity=".3" transform="translate(-15 -12)">
    <rect width="100" height="100" fill="#000" opacity="0"/>
    <path fill="#4798FB" d="M39.85,65.034375 C39.7618539,66.2817781 39.7618539,67.5338469 39.85,68.78125 L30.490625,68.78125 L30.490625,65.0375 L39.85,65.0375 L39.85,65.034375 Z M44.89375,51.928125 L30.490625,51.928125 L30.490625,55.671875 L42.503125,55.671875 C43.184375,54.35 43.9875,53.09375 44.89375,51.928125 Z M52.7875,12.609375 L41.640625,12.609375 L41.640625,16.353125 L52.7875,16.353125 L52.7875,12.609375 Z M21.2,83.75625 C20.7052035,83.7537698 20.2316586,83.5548309 19.8835429,83.2031988 C19.5354271,82.8515668 19.3412573,82.3760464 19.34375,81.88125 L19.34375,18.228125 C19.34375,17.19375 20.175,16.35625 21.2,16.35625 L30.1125,16.35625 C31.2875,16.759375 32.321875,17.778125 32.35,20.1 C32.39375,24.19375 37.921875,23.84375 37.921875,23.84375 L56.503125,23.84375 C56.503125,23.84375 61.703125,23.84375 62.078125,19.55625 C62.246875,17.61875 63.203125,16.728125 64.275,16.353125 L73.225,16.353125 C74.25,16.353125 75.08125,17.190625 75.08125,18.225 L75.08125,45.309375 C76.4,46 77.6375,46.80625 78.796875,47.71875 L78.796875,16.353125 C78.796875,14.284375 77.134375,12.609375 75.08125,12.609375 L63.9375,12.609375 C63.9375,12.609375 58.3625,11.503125 58.3625,16.353125 C58.3625,18.925 56.796875,19.821875 55.325,20.096875 L39.665625,20.096875 C38.0625,19.896875 36.065625,19.096875 36.065625,16.353125 C36.065625,11.771875 30.490625,12.609375 30.490625,12.609375 L19.34375,12.609375 C17.2875,12.609375 15.625,14.2875 15.625,16.353125 L15.625,83.753125 C15.625,85.825 17.2875,87.5 19.34375,87.5 L51.05625,87.5 C49.3925552,86.4410433 47.8636499,85.1839201 46.503125,83.75625 L21.2,83.75625 Z M63.9375,38.821875 L30.490625,38.821875 L30.490625,42.565625 L63.9375,42.565625 L63.9375,38.821875 Z M84.375,66.90625 C84.375,78.28125 75.221875,87.5 63.9375,87.5 C52.646875,87.5 43.496875,78.28125 43.496875,66.90625 C43.496875,55.53125 52.646875,46.3125 63.9375,46.3125 C75.221875,46.3125 84.375,55.534375 84.375,66.90625 Z M66.25,75.653125 C66.25,74.44375 65.240625,73.465625 63.9875,73.465625 C62.740625,73.465625 61.725,74.44375 61.725,75.653125 C61.725,76.8625 62.7375,77.840625 63.9875,77.840625 C64.5778713,77.8514904 65.1482865,77.6269125 65.5727894,77.2164815 C65.9972923,76.8060505 66.2409647,76.2435272 66.25,75.653125 Z M66.25,58.153125 C66.25,56.94375 65.240625,55.965625 63.9875,55.965625 C62.7592819,55.9464726 61.7472473,56.924959 61.725,58.153125 L61.725,68.359375 C61.725,69.571875 62.7375,70.55 63.9875,70.55 C65.2375,70.55 66.25,69.571875 66.25,68.359375 L66.25,58.153125 Z"/>
  </g>
</svg>
