<?xml version="1.0" standalone="no"?><!DOCTYPE svg PUBLIC "-//W3C//DTD SVG 1.1//EN" "http://www.w3.org/Graphics/SVG/1.1/DTD/svg11.dtd"><svg t="1534327294798" class="icon" style="" viewBox="0 0 1025 1024" version="1.1" xmlns="http://www.w3.org/2000/svg" p-id="1063" xmlns:xlink="http://www.w3.org/1999/xlink" width="200.1953125" height="200"><defs><style type="text/css"></style></defs><path d="M513 512m-512 0a512 512 0 1 0 1024 0 512 512 0 1 0-1024 0Z" fill="#D0E5FD" p-id="1064"></path><path d="M513 512m-423.86 0a423.86 423.86 0 1 0 847.72 0 423.86 423.86 0 1 0-847.72 0Z" fill="#FFFFFF" p-id="1065"></path><path d="M429.6 358.6h182a9.53 9.53 0 0 0 9.4-9.6v-39.36a9.53 9.53 0 0 0-9.36-9.64h-182a9.53 9.53 0 0 0-9.36 9.64V349a9.54 9.54 0 0 0 9.32 9.6z" fill="#4798FB" p-id="1066"></path><path d="M675.62 343.18h-36.68v3.08c0 17-13.43 30.84-30 30.84H432.23c-16.53 0-30-13.84-30-30.84v-3.08h-36.64a12.19 12.19 0 0 0-12 12.33v356.15a12.2 12.2 0 0 0 12 12.34h310a12.21 12.21 0 0 0 12-12.34V355.51a12.2 12.2 0 0 0-11.97-12.33zM634.45 637.7a12.2 12.2 0 0 1-12 12.34H418.74a12.2 12.2 0 0 1-12-12.34v-12.33a12.2 12.2 0 0 1 12-12.34h203.73a12.2 12.2 0 0 1 12 12.34z m0-92a12.2 12.2 0 0 1-12 12.34H418.74a12.2 12.2 0 0 1-12-12.34v-12.34a12.2 12.2 0 0 1 12-12.34h203.73a12.2 12.2 0 0 1 12 12.34z m0-92a12.19 12.19 0 0 1-12 12.33H418.74a12.19 12.19 0 0 1-12-12.33v-12.35a12.19 12.19 0 0 1 12-12.33h203.73a12.19 12.19 0 0 1 12 12.33z" fill="#4798FB" p-id="1067"></path></svg>