<svg id="图层_1" data-name="图层 1" xmlns="http://www.w3.org/2000/svg" viewBox="0 0 1009 1009"><defs><style>.cls-1{fill:#e5f2ff;}.cls-2{fill:#4798fb;}</style></defs><title>icon_top_exit</title><circle class="cls-1" cx="504.5" cy="504.5" r="504.5"/><path class="cls-2" d="M600.66,689.52c13.51,0,22.52,8.82,22.52,22.07s-9,22.07-22.52,22.07H375.43c-13.51,0-22.52-8.83-22.52-22.07V314.29c0-13.24,13.52-22.07,22.52-22.07H600.66c13.51,0,22.52,8.83,22.52,22.07s-9,22.08-22.52,22.08H398V689.52ZM686.24,407,794.35,512.94,686.24,623.3c-4.5,4.41-13.51,4.41-18,4.41s-9-4.41-13.51-8.82c-9-8.83-9-22.08,0-30.91l54.06-53H488.05c-13.52,0-22.53-8.83-22.53-22.07s9-22.07,22.53-22.07H708.77l-54.06-53c-9-8.83-9-22.08,0-30.9C663.72,402.58,677.23,398.17,686.24,407Z" transform="translate(-6.07 -8.44)"/></svg>