<?xml version="1.0" standalone="no"?><!DOCTYPE svg PUBLIC "-//W3C//DTD SVG 1.1//EN" "http://www.w3.org/Graphics/SVG/1.1/DTD/svg11.dtd"><svg t="1533812015022" class="icon" style="" viewBox="0 0 1024 1024" version="1.1" xmlns="http://www.w3.org/2000/svg" p-id="1032" xmlns:xlink="http://www.w3.org/1999/xlink" width="200" height="200"><defs><style type="text/css"></style></defs><path d="M751.423401 950.848183H571.519851a25.599936 25.599936 0 0 1-25.535936-25.599936V577.537116a23.231942 23.231942 0 0 0-23.167942-23.295942H424.12822c-12.799968 0-23.167942 10.431974-23.167942 23.295942v347.583131a25.599936 25.599936 0 0 1-25.599936 25.663936H190.016805a75.327812 75.327812 0 0 1-75.199812-75.519811V555.84117a17.343957 17.343957 0 0 0-17.279957-17.343956h-47.359881c-44.15989 0-66.687833-53.375867-35.903911-85.247787L436.352189 15.298522A49.919875 49.919875 0 0 1 507.84001 14.914523l427.838931 434.302914c32.639918 33.087917 9.279977 89.279777-37.119907 89.279777h-50.751874c-10.239974 0-18.623953 8.319979-18.623953 18.623953v315.647211c0 43.135892-34.815913 78.079805-77.759806 78.079805z m-110.079724-64.447839h92.479768c17.279957 0 31.231922-14.015965 31.231922-31.359922V506.049295a31.99992 31.99992 0 0 1 31.871921-31.99992h59.77585a5.503986 5.503986 0 0 0 3.90399-9.407977l-373.119067-378.751053a20.991948 20.991948 0 0 0-30.079925 0.128L83.393072 474.049375h63.67984a31.99992 31.99992 0 0 1 31.871921 31.99992v348.991127c0 17.343957 13.951965 31.359922 31.167922 31.359922h95.487761c17.279957 0 31.231922-14.015965 31.231922-31.359922V580.737108c0-50.175875 40.447899-90.879773 90.367774-90.879773H519.679981c49.919875 0 90.367774 40.703898 90.367774 90.879773v274.303314c0 17.343957 14.015965 31.359922 31.231922 31.359922z" p-id="1033"></path></svg>