<?xml version="1.0" standalone="no"?><!DOCTYPE svg PUBLIC "-//W3C//DTD SVG 1.1//EN" "http://www.w3.org/Graphics/SVG/1.1/DTD/svg11.dtd"><svg t="1533813194947" class="icon" style="" viewBox="0 0 1024 1024" version="1.1" xmlns="http://www.w3.org/2000/svg" p-id="3525" xmlns:xlink="http://www.w3.org/1999/xlink" width="200" height="200"><defs><style type="text/css"></style></defs><path d="M820.544 66.944H203.52c-56.704 0-102.848 46.144-102.848 102.848v685.696a103.04 103.04 0 0 0 102.848 102.848h617.088a103.04 103.04 0 0 0 102.848-102.848V169.792c0-56.704-46.08-102.848-102.848-102.848z m34.304 788.544c0 18.944-15.36 34.304-34.304 34.304H203.52a34.304 34.304 0 0 1-34.304-34.304V169.792c0-18.88 15.36-34.304 34.304-34.304h617.088c18.944 0 34.304 15.424 34.304 34.304v685.696zM650.176 547.84H271.744a34.304 34.304 0 0 1 0-68.544h378.432a34.304 34.304 0 1 1 0 68.544z m100.608 204.288H271.616a34.304 34.304 0 1 1 0-68.544h479.168a34.24 34.24 0 1 1 0 68.544z m-425.6-497.28a52.032 52.032 0 0 0-36.352-15.04c-13.44 0-26.88 5.568-36.352 15.04a52.032 52.032 0 0 0-15.04 36.416c0 13.44 5.504 26.88 15.04 36.352a52.032 52.032 0 0 0 36.352 15.04c13.44 0 26.88-5.504 36.352-15.04a52.032 52.032 0 0 0 15.104-36.352c0-13.44-5.568-26.88-15.104-36.416z m222.4 0a52.032 52.032 0 0 0-36.352-15.04c-13.44 0-26.88 5.568-36.352 15.04a52.032 52.032 0 0 0-15.04 36.416c0 13.44 5.504 26.88 15.04 36.352a52.032 52.032 0 0 0 36.352 15.04c13.44 0 26.88-5.504 36.352-15.04a52.032 52.032 0 0 0 15.104-36.352c0-13.44-5.568-26.88-15.104-36.416z m222.4 0a52.032 52.032 0 0 0-36.352-15.04c-13.44 0-26.88 5.568-36.352 15.04a52.032 52.032 0 0 0-15.04 36.416c0 13.44 5.504 26.88 15.04 36.352a52.032 52.032 0 0 0 36.352 15.04c13.44 0 26.88-5.504 36.352-15.04a52.032 52.032 0 0 0 15.104-36.352c0-13.44-5.568-26.88-15.104-36.416z" p-id="3526"></path></svg>