<?xml version="1.0" standalone="no"?><!DOCTYPE svg PUBLIC "-//W3C//DTD SVG 1.1//EN" "http://www.w3.org/Graphics/SVG/1.1/DTD/svg11.dtd"><svg t="1534417353567" class="icon" style="" viewBox="0 0 1102 1024" version="1.1" xmlns="http://www.w3.org/2000/svg" p-id="801" xmlns:xlink="http://www.w3.org/1999/xlink" width="215.234375" height="200"><defs><style type="text/css"></style></defs><path d="M165.100308 905.373538l252.84923-68.923076 598.646154-590.690462c27.569231-27.175385 27.569231-62.621538 0-89.796923L879.143385 20.637538c-27.569231-27.254154-63.488-27.254154-91.057231 0L188.888615 611.249231l-69.947077 249.147077c-7.089231 34.816 10.870154 52.539077 46.15877 44.898461z m120.044307-298.535384l525.39077-517.907692c21.897846-22.843077 23.788308-22.843077 45.686153 0l91.057231 89.796923c22.449231 22.055385 23.709538 21.504 0 44.898461L413.459692 751.694769 276.164923 616.369231l8.979692-9.452308z m-46.237538 44.898461l137.294769 135.404308-188.573538 50.569846 51.278769-185.895384z m830.936615 307.987693H32.295385a31.980308 31.980308 0 0 0-32.059077 31.66523c0 17.092923 14.178462 31.665231 32.059077 31.665231h1037.548307c17.329231 0 32.059077-13.942154 32.059077-31.665231a31.980308 31.980308 0 0 0-32.059077-31.586461z" fill="#4798FB" p-id="802"></path></svg>