<?xml version="1.0" standalone="no"?><!DOCTYPE svg PUBLIC "-//W3C//DTD SVG 1.1//EN" "http://www.w3.org/Graphics/SVG/1.1/DTD/svg11.dtd"><svg t="1534327278899" class="icon" style="" viewBox="0 0 1025 1024" version="1.1" xmlns="http://www.w3.org/2000/svg" p-id="826" xmlns:xlink="http://www.w3.org/1999/xlink" width="200.1953125" height="200"><defs><style type="text/css"></style></defs><path d="M512.08984 512m-512 0a512 512 0 1 0 1024 0 512 512 0 1 0-1024 0Z" fill="#EAF4DF" p-id="827"></path><path d="M512.08984 512m-423.107991 0a423.107992 423.107992 0 1 0 846.215983 0 423.107992 423.107992 0 1 0-846.215983 0Z" fill="#FFFFFF" p-id="828"></path><path d="M528.330974 351.874598H316.996588a16.241134 16.241134 0 0 0-16.251116 16.201205v240.143183a16.231152 16.231152 0 0 0 16.251116 16.201205h32.442339a57.5577 57.5577 0 0 1 114.00737 0h64.934589a16.241134 16.241134 0 0 0 16.251116-16.201205V368.075803a16.31101 16.31101 0 0 0-16.301028-16.201205z" fill="#AED581" p-id="829"></path><path d="M366.828021 632.59566a39.619582 39.529742 0 1 0 79.239164 0 39.619582 39.529742 0 1 0-79.239164 0Z" fill="#AED581" p-id="830"></path><path d="M594.413523 632.59566a39.619582 39.529742 0 1 0 79.239165 0 39.619582 39.529742 0 1 0-79.239165 0Z" fill="#AED581" p-id="831"></path><path d="M711.006297 494.45119l-36.315455-48.264218c-7.456747-8.924139-12.417929-16.191223-24.366692-16.191222h-73.199898a16.231152 16.231152 0 0 0-16.251116 16.191222v162.081925a16.281063 16.281063 0 0 0 16.151293 16.201205 57.567682 57.567682 0 0 1 114.00737 0.049911h16.151294a16.241134 16.241134 0 0 0 16.251116-16.201205v-81.085882c0-15.402624-12.427911-32.781736-12.427912-32.781736zM609.616502 527.232926v-64.884678h39.759334c2.595387 0 6.27884 3.823205 6.27884 3.823205l34.199216 47.226063c2.994677 4.442105 6.328752 9.732702 6.328752 13.795481z" fill="#AED581" p-id="832"></path></svg>