<?xml version="1.0" standalone="no"?><!DOCTYPE svg PUBLIC "-//W3C//DTD SVG 1.1//EN" "http://www.w3.org/Graphics/SVG/1.1/DTD/svg11.dtd"><svg t="1533811700217" class="icon" style="" viewBox="0 0 1024 1024" version="1.1" xmlns="http://www.w3.org/2000/svg" p-id="647" xmlns:xlink="http://www.w3.org/1999/xlink" width="200" height="200"><defs><style type="text/css"></style></defs><path d="M832 128h-96V64h-86.208C622.08 25.92 571.072 0 512 0S401.92 25.92 374.208 64H288v64H192a128 128 0 0 0-128 128v640a128 128 0 0 0 128 128h640a128 128 0 0 0 128-128V256a128 128 0 0 0-128-128zM352 128h71.104c0-35.328 39.808-64 88.896-64s88.896 28.672 88.896 64H672v128h-320V128zM896 896a64 64 0 0 1-64 64H192a64 64 0 0 1-64-64V256a64 64 0 0 1 64-64h96v128h448V192H832a64 64 0 0 1 64 64v640z m-160-128h-448a32 32 0 1 0 0 64h448a32 32 0 1 0 0-64z m0-320h-448a32 32 0 1 0 0 64h448a32 32 0 1 0 0-64z m0 160h-448a32 32 0 0 0 0 64h448a32 32 0 1 0 0-64z" p-id="648"></path></svg>