<?xml version="1.0" standalone="no"?><!DOCTYPE svg PUBLIC "-//W3C//DTD SVG 1.1//EN" "http://www.w3.org/Graphics/SVG/1.1/DTD/svg11.dtd"><svg t="1533813185270" class="icon" style="" viewBox="0 0 1024 1024" version="1.1" xmlns="http://www.w3.org/2000/svg" p-id="3305" xmlns:xlink="http://www.w3.org/1999/xlink" width="200" height="200"><defs><style type="text/css"></style></defs><path d="M954.75648 954.176H70.27648v-21.632c8.64-20.48 25.856-39.744 51.2-57.216 25.472-17.536 58.688-33.088 98.624-46.208a826.88 826.88 0 0 1 153.6-32.832c21.824-2.432 41.344-14.208 53.44-32l7.744-11.648 2.944-12.8c8.448-36.864-12.096-73.6-25.088-92.16a75.392 75.392 0 0 0-14.912-15.808c-32.512-25.6-60.8-63.36-81.664-108.992a74.048 74.048 0 0 0-57.152-42.88c-3.968-1.28-17.28-13.056-23.04-37.376-6.656-27.392 0.512-45.056 3.072-47.616 22.656-13.76 36.48-38.784 36.032-65.344-1.408-83.584 18.496-148.288 59.2-192.384C385.73248 81.536 459.58848 69.824 512.51648 69.824c52.928 0 126.784 11.712 178.304 67.456 40.64 44.096 60.544 108.8 59.136 192.384-0.448 26.56 13.376 51.584 35.392 64.896 3.2 3.008 10.368 20.672 3.776 48.128-5.824 24.256-19.2 35.968-22.336 37.12a74.496 74.496 0 0 0-57.856 43.072c-20.992 45.632-49.216 83.328-81.664 108.992-5.76 4.48-10.816 9.856-14.976 15.808-12.992 18.56-33.536 55.296-25.088 92.224l3.328 13.44 7.296 10.752c12.16 17.984 31.68 29.76 53.44 32.192 19.136 2.112 86.656 10.88 153.6 32.832 40 13.12 73.216 28.672 98.624 46.208 25.6 17.664 42.944 37.056 51.2 57.024v21.76z m67.712-39.808l-0.064-0.256c-12.8-36.48-39.552-68.928-79.36-96.32-30.912-21.312-70.08-39.808-116.352-55.04a889.216 889.216 0 0 0-167.616-35.84 4.928 4.928 0 0 1-3.52-2.048 3.008 3.008 0 0 1-0.32-0.704c-1.728-7.68 5.888-24.384 14.272-36.416a4.48 4.48 0 0 1 1.024-1.024c41.216-32.64 76.288-79.04 101.824-134.72a5.12 5.12 0 0 1 3.904-2.944c35.84-4.928 68.992-41.28 80.768-90.048 12.8-53.376-1.728-103.68-34.816-123.712a5.12 5.12 0 0 1-2.432-4.48c1.728-102.144-24.384-183.168-77.696-240.896C673.47648 15.616 579.39648 0 512.51648 0 445.63648 0 351.55648 15.616 282.94848 89.92c-53.312 57.728-79.424 138.752-77.696 240.896a5.12 5.12 0 0 1-2.432 4.48c-33.088 20.096-47.68 70.336-34.816 123.712 11.776 48.768 44.928 85.12 80.768 90.048a5.12 5.12 0 0 1 3.84 2.944c25.6 55.68 60.672 102.144 101.888 134.72a4.48 4.48 0 0 1 1.024 1.024c8.384 12.032 16 28.8 14.272 36.416a3.008 3.008 0 0 1-0.32 0.704 4.928 4.928 0 0 1-3.52 1.984 888.96 888.96 0 0 0-167.68 35.904c-46.208 15.232-85.376 33.728-116.288 55.04-39.808 27.392-66.56 59.776-79.36 96.32l-0.064 0.256a38.784 38.784 0 0 0-2.048 12.288v54.144c0 23.872 19.328 43.2 43.2 43.2h937.6a43.2 43.2 0 0 0 43.2-43.2v-54.144a38.784 38.784 0 0 0-2.048-12.288z" p-id="3306"></path></svg>