<?xml version="1.0" standalone="no"?><!DOCTYPE svg PUBLIC "-//W3C//DTD SVG 1.1//EN" "http://www.w3.org/Graphics/SVG/1.1/DTD/svg11.dtd"><svg t="1534417396469" class="icon" style="" viewBox="0 0 1024 1024" version="1.1" xmlns="http://www.w3.org/2000/svg" p-id="1131" xmlns:xlink="http://www.w3.org/1999/xlink" width="200" height="200"><defs><style type="text/css"></style></defs><path d="M658.212571 963.730286c-128.731429 0-233.910857-108.397714-233.910857-240.932572 0-132.461714 105.252571-240.932571 233.910857-240.932571s233.910857 108.470857 233.910858 240.932571c0 132.534857-105.252571 240.932571-233.910858 240.932572z m0-421.595429c-99.474286 0-175.469714 78.262857-175.469714 180.662857 0 102.4 76.068571 180.662857 175.469714 180.662857 99.474286 0 175.469714-78.262857 175.469715-180.662857 0-102.4-76.068571-180.662857-175.469715-180.662857z" fill="#4798FB" p-id="1132"></path><path d="M921.380571 1024c-5.851429 0-17.554286 0-23.405714-5.997714L781.019429 897.462857a29.696 29.696 0 0 1 0-42.203428c11.702857-12.068571 29.257143-12.068571 40.96 0l116.955428 120.466285c11.702857 12.068571 11.702857 30.134857 0 42.203429 0 5.997714-11.702857 5.997714-17.554286 5.997714z m-497.078857 0H219.574857c-81.92 0-146.212571-66.267429-146.212571-150.601143V150.674286C73.362286 66.267429 137.728 0 219.648 0h584.777143c81.92 0 146.212571 66.267429 146.212571 150.601143v264.996571c0 18.066286-11.702857 30.134857-29.257143 30.134857-17.554286 0-29.257143-12.068571-29.257142-30.134857V150.674286c0-48.201143-40.96-90.331429-87.771429-90.331429H219.648c-46.811429 0-87.771429 42.130286-87.771429 90.331429v722.797714c0 48.201143 40.96 90.331429 87.771429 90.331429h204.726857c17.554286 0 29.257143 12.068571 29.257143 30.134857 0 18.066286-11.702857 30.134857-29.257143 30.134857z" fill="#4798FB" p-id="1133"></path><path d="M745.910857 301.202286H278.089143c-17.554286 0-29.257143-12.068571-29.257143-30.134857 0-18.066286 11.702857-30.134857 29.257143-30.134858h467.821714c17.554286 0 29.257143 12.068571 29.257143 30.134858 0 18.066286-11.702857 30.134857-29.257143 30.134857z m-350.866286 180.662857H277.942857c-17.554286 0-29.257143-11.995429-29.257143-30.134857 0-18.066286 11.702857-30.061714 29.257143-30.061715h117.028572c17.554286 0 29.257143 11.995429 29.257142 30.061715 0 18.139429-11.702857 30.134857-29.257142 30.134857z" fill="#4798FB" p-id="1134"></path></svg>