<?xml version="1.0" standalone="no"?><!DOCTYPE svg PUBLIC "-//W3C//DTD SVG 1.1//EN" "http://www.w3.org/Graphics/SVG/1.1/DTD/svg11.dtd"><svg t="1533813190912" class="icon" style="" viewBox="0 0 1024 1024" version="1.1" xmlns="http://www.w3.org/2000/svg" p-id="3415" xmlns:xlink="http://www.w3.org/1999/xlink" width="200" height="200"><defs><style type="text/css"></style></defs><path d="M512 329.344a33.92 33.92 0 0 0-34.112 33.6v224.064c0 1.536 0.768 2.88 0.96 4.352 0.32 2.496 0.64 4.8 1.408 7.04 0.832 1.92 1.92 3.712 2.944 5.44 1.088 1.92 2.176 3.712 3.712 5.44 1.6 1.664 3.456 2.88 5.44 4.48 1.28 0.768 2.048 2.176 3.52 2.816l195.2 103.744a34.176 34.176 0 0 0 46.208-13.632 33.408 33.408 0 0 0-13.952-45.568l-177.28-94.272V362.88A33.92 33.92 0 0 0 512 329.344z m454.4 179.2a33.792 33.792 0 0 0-34.048 33.664c0 228.608-188.544 414.528-420.288 414.528-231.808 0-420.352-185.92-420.352-414.528 0-228.672 188.544-414.528 420.352-414.528 50.112 0.192 99.84 9.28 146.752 26.752l-44.8 11.84a33.536 33.536 0 0 0 8.832 66.048 34.368 34.368 0 0 0 8.832-1.088l109.568-28.992a56.32 56.32 0 0 0 34.688-26.176c7.552-12.8 9.6-28.16 5.568-42.496l-29.376-108.16A33.92 33.92 0 0 0 710.4 1.6a33.6 33.6 0 0 0-24.064 41.088l14.976 55.232A497.28 497.28 0 0 0 512 60.416C242.624 60.416 23.488 276.544 23.488 542.208 23.488 807.808 242.624 1024 512 1024c269.312 0 488.512-216.128 488.512-481.728a33.92 33.92 0 0 0-34.112-33.728z" p-id="3416"></path></svg>